<svg xmlns="http://www.w3.org/2000/svg" version="1.1" xmlns:xlink="http://www.w3.org/1999/xlink" xmlns:svgjs="http://svgjs.com/svgjs" width="1000" height="1000"><rect width="1000" height="1000" rx="200" ry="200" fill="#555555"></rect><g transform="matrix(2,0,0,2,100,126.65562833211067)"><svg xmlns="http://www.w3.org/2000/svg" version="1.1" xmlns:xlink="http://www.w3.org/1999/xlink" xmlns:svgjs="http://svgjs.com/svgjs" width="400" height="373.2057416267943"><svg id="svg" version="1.1" xmlns="http://www.w3.org/2000/svg" xmlns:xlink="http://www.w3.org/1999/xlink" width="400" height="373.2057416267943" viewBox="0, 0, 400,373.2057416267943"><g id="svgg"><path id="path0" d="M145.658 13.507 C 144.118 14.561,141.856 16.196,140.633 17.142 C 139.410 18.087,138.035 19.113,137.577 19.421 C 136.921 19.863,107.834 40.973,98.846 47.531 C 97.786 48.305,96.391 49.313,95.745 49.772 C 95.100 50.231,87.987 55.397,79.940 61.251 C 71.892 67.106,64.773 72.254,64.120 72.691 C 63.466 73.129,62.512 73.941,61.998 74.496 L 61.064 75.504 61.064 117.024 L 61.064 158.543 62.975 164.146 C 64.866 169.694,66.557 174.921,69.497 184.314 C 70.333 186.984,71.158 189.505,71.329 189.916 C 71.501 190.327,72.345 192.932,73.207 195.705 C 75.062 201.681,75.949 204.467,78.378 211.951 C 82.449 224.497,82.322 224.028,81.893 224.927 C 81.672 225.391,80.786 227.535,79.925 229.692 C 79.064 231.849,78.213 233.950,78.033 234.360 C 77.854 234.771,77.193 236.452,76.564 238.095 C 75.935 239.739,75.274 241.419,75.094 241.830 C 74.915 242.241,74.061 244.342,73.196 246.499 C 71.784 250.023,71.251 251.330,70.225 253.782 C 70.053 254.192,69.198 256.271,68.323 258.401 C 66.661 262.450,65.813 263.305,63.457 263.305 C 61.903 263.305,57.887 265.627,56.205 267.497 C 50.041 274.352,51.800 285.643,59.702 289.943 C 72.600 296.963,86.742 282.103,78.928 269.741 C 77.310 267.180,77.361 266.714,79.908 260.878 C 80.088 260.467,80.762 258.786,81.407 257.143 C 82.052 255.500,82.726 253.819,82.904 253.408 C 83.083 252.997,83.923 250.896,84.771 248.739 C 85.619 246.583,86.457 244.482,86.635 244.071 C 86.812 243.660,87.485 241.979,88.129 240.336 C 88.774 238.693,89.441 237.012,89.612 236.601 C 89.783 236.190,90.381 234.678,90.942 233.240 C 92.238 229.918,92.935 228.241,93.483 227.126 C 94.210 225.648,93.957 222.263,92.880 219.048 C 91.859 215.998,88.512 205.713,85.162 195.331 C 84.135 192.148,82.200 186.181,80.861 182.073 C 78.683 175.386,77.351 171.273,73.572 159.565 L 72.456 156.105 72.456 118.600 L 72.456 81.096 74.043 79.826 C 75.455 78.696,110.544 53.281,112.549 51.935 C 113.351 51.397,118.248 47.882,118.954 47.338 C 119.385 47.005,124.193 43.531,125.303 42.749 C 125.714 42.460,127.840 40.916,130.026 39.319 C 132.213 37.722,135.528 35.322,137.394 33.987 C 139.260 32.652,141.840 30.784,143.129 29.837 C 149.702 25.006,152.691 23.073,153.150 23.356 C 153.358 23.485,155.497 23.736,157.903 23.914 C 161.976 24.215,164.110 24.404,174.416 25.376 C 176.573 25.579,181.363 26.010,185.061 26.334 C 188.758 26.657,193.380 27.078,195.331 27.268 C 198.963 27.622,209.509 28.564,214.192 28.954 C 215.630 29.074,219.328 29.420,222.409 29.724 C 225.490 30.028,229.860 30.423,232.120 30.602 C 234.379 30.780,236.816 31.027,237.535 31.149 C 238.827 31.370,243.818 31.836,252.025 32.504 C 257.425 32.943,258.713 33.349,261.353 35.446 C 262.540 36.390,266.197 39.178,269.478 41.643 C 272.759 44.108,275.528 46.215,275.630 46.325 C 275.733 46.434,277.414 47.720,279.365 49.181 C 282.725 51.697,286.674 54.699,297.852 63.231 C 300.523 65.269,303.884 67.834,305.322 68.930 C 322.534 82.056,320.620 80.303,320.534 82.862 C 320.495 84.020,320.296 86.312,320.091 87.955 C 319.886 89.599,319.459 93.296,319.142 96.172 C 318.824 99.048,318.405 102.829,318.211 104.575 C 317.473 111.193,316.733 117.902,316.541 119.701 C 316.431 120.728,316.075 123.922,315.750 126.797 C 315.424 129.673,315.039 133.159,314.895 134.543 C 314.527 138.053,314.240 138.218,307.224 138.944 C 305.356 139.137,301.811 139.561,299.346 139.886 C 296.881 140.212,293.604 140.620,292.063 140.794 C 289.430 141.092,286.769 141.422,280.112 142.275 C 278.571 142.472,275.126 142.900,272.456 143.227 C 269.785 143.553,266.573 143.981,265.316 144.179 C 261.217 144.823,260.099 144.684,259.198 143.418 C 252.635 134.202,237.181 137.545,234.053 148.857 C 229.499 165.325,253.590 174.297,260.917 158.862 C 262.035 156.506,262.310 156.280,264.426 155.972 C 267.023 155.594,274.091 154.686,276.377 154.436 C 277.507 154.312,280.364 153.965,282.726 153.664 C 291.115 152.596,292.679 152.401,297.479 151.824 C 300.149 151.503,303.427 151.084,304.762 150.893 C 314.458 149.504,316.713 149.599,316.713 151.396 C 316.713 151.770,321.110 163.649,322.123 166.013 C 322.387 166.629,322.978 168.226,323.436 169.561 C 323.894 170.896,324.486 172.493,324.752 173.109 C 325.017 173.725,325.935 176.162,326.791 178.525 C 327.647 180.887,328.483 183.156,328.648 183.567 C 328.814 183.978,329.202 184.986,329.512 185.808 C 330.248 187.763,331.291 190.471,331.669 191.410 C 331.835 191.821,332.668 194.090,333.520 196.452 C 334.373 198.814,335.205 201.083,335.371 201.494 C 338.054 208.158,338.745 210.386,338.295 210.928 C 337.948 211.346,326.310 220.363,321.523 223.922 C 309.896 232.567,310.166 232.288,309.659 236.181 C 309.282 239.080,308.755 245.261,308.125 254.155 C 307.320 265.519,306.851 270.262,306.483 270.733 C 305.957 271.408,293.405 270.672,288.329 269.669 C 279.088 267.843,271.679 265.440,265.733 262.340 C 263.884 261.377,261.236 260.006,259.848 259.295 C 257.031 257.851,257.111 258.009,256.756 253.150 C 255.531 236.364,231.162 235.389,228.203 252.007 C 226.370 262.298,236.872 271.464,246.721 268.170 C 249.851 267.123,251.688 267.475,254.528 269.670 C 254.981 270.019,261.781 273.404,263.866 274.317 C 264.687 274.677,265.864 275.192,266.480 275.461 C 268.207 276.214,277.874 279.375,279.552 279.736 C 289.337 281.838,290.086 281.946,298.599 282.486 L 305.322 282.913 305.252 287.208 C 305.213 289.570,305.003 293.520,304.786 295.985 C 304.258 301.988,303.327 313.350,303.125 316.260 C 302.862 320.063,306.530 319.701,268.290 319.701 C 231.746 319.701,232.790 319.644,231.439 321.706 C 230.826 322.642,229.265 325.630,221.951 339.869 C 217.597 348.346,218.574 347.840,212.278 344.881 C 201.894 340.001,202.621 340.564,202.039 336.957 C 199.955 324.045,182.073 321.032,175.403 332.470 C 169.263 343.000,178.811 356.478,190.542 353.842 C 192.047 353.504,193.445 353.101,193.651 352.947 C 193.856 352.794,194.820 352.230,195.792 351.695 L 197.560 350.722 199.154 351.412 C 200.030 351.791,202.512 352.944,204.669 353.973 C 206.825 355.002,209.430 356.220,210.458 356.680 C 211.485 357.140,214.394 358.504,216.924 359.711 C 223.381 362.792,222.922 362.960,226.430 356.220 C 232.330 344.884,235.562 338.657,237.023 335.813 C 237.905 334.095,238.927 332.462,239.295 332.183 C 239.846 331.765,246.175 331.674,275.513 331.665 C 297.793 331.657,311.422 331.516,312.025 331.287 C 313.623 330.679,313.844 329.429,314.862 315.219 C 315.046 312.652,315.459 307.442,315.780 303.641 C 316.100 299.841,316.513 294.631,316.697 292.063 C 316.881 289.496,317.210 285.294,317.428 282.726 C 317.646 280.159,317.993 275.957,318.199 273.389 C 318.405 270.822,318.828 265.612,319.139 261.811 C 320.319 247.389,320.442 245.860,320.652 242.951 C 320.771 241.307,320.951 239.674,321.053 239.321 C 321.216 238.757,327.467 233.774,336.670 226.872 C 338.300 225.650,340.737 223.822,342.085 222.809 C 343.434 221.797,344.725 220.789,344.954 220.568 C 345.183 220.348,346.645 219.244,348.204 218.114 C 352.808 214.775,352.777 214.995,349.792 207.057 C 348.410 203.381,347.100 199.869,346.880 199.253 C 346.660 198.637,346.269 197.628,346.012 197.012 C 345.754 196.396,345.095 194.631,344.546 193.091 C 343.997 191.550,343.289 189.617,342.971 188.796 C 342.654 187.974,342.266 186.965,342.110 186.555 C 341.954 186.144,341.566 185.135,341.249 184.314 C 340.932 183.492,340.223 181.559,339.674 180.019 C 339.126 178.478,338.457 176.713,338.190 176.097 C 337.922 175.481,337.450 174.220,337.141 173.296 C 336.832 172.372,336.404 171.195,336.190 170.682 C 335.559 169.167,332.446 160.762,331.800 158.830 C 331.473 157.851,330.986 156.545,330.718 155.929 C 330.450 155.313,329.782 153.548,329.233 152.007 C 328.322 149.448,327.573 147.451,326.783 145.472 C 325.795 142.994,325.681 142.046,326.021 139.146 C 326.215 137.490,326.564 134.370,326.797 132.213 C 327.030 130.056,327.392 126.863,327.602 125.117 C 327.811 123.371,328.129 120.514,328.309 118.768 C 328.488 117.021,328.903 113.240,329.231 110.364 C 329.559 107.488,329.979 103.623,330.165 101.774 C 330.352 99.925,330.770 96.144,331.094 93.371 C 331.851 86.895,332.330 82.341,332.636 78.705 L 332.881 75.804 331.407 74.410 C 330.049 73.126,321.175 66.288,313.409 60.541 C 311.631 59.226,310.093 58.038,309.991 57.900 C 309.888 57.763,308.796 56.914,307.563 56.013 C 306.331 55.112,305.154 54.233,304.949 54.060 C 304.743 53.887,298.945 49.459,292.063 44.220 C 285.182 38.981,279.295 34.485,278.982 34.229 C 278.668 33.973,277.408 33.016,276.181 32.103 C 274.954 31.190,273.866 30.349,273.763 30.235 C 273.429 29.863,264.640 23.317,263.679 22.724 C 262.402 21.937,259.621 21.364,255.836 21.107 C 254.090 20.989,250.980 20.730,248.926 20.533 C 245.396 20.194,237.568 19.486,228.385 18.676 C 220.593 17.988,211.943 17.153,208.964 16.799 C 206.123 16.463,201.445 16.029,192.717 15.294 C 190.560 15.112,186.022 14.696,182.633 14.368 C 179.244 14.040,174.706 13.631,172.549 13.458 C 166.956 13.011,160.186 12.375,156.447 11.947 C 149.864 11.192,148.822 11.343,145.658 13.507 M168.393 38.422 C 160.911 40.011,154.829 49.505,157.236 55.836 C 157.686 57.019,157.278 57.921,155.552 59.553 C 151.829 63.072,136.882 77.472,134.767 79.576 C 131.265 83.061,131.470 81.054,131.468 111.808 L 131.466 138.648 130.296 139.632 C 120.807 147.613,120.290 158.253,129.093 164.361 C 139.808 171.795,155.088 161.434,151.443 149.206 C 150.390 145.676,146.365 140.056,144.889 140.056 C 143.420 140.056,143.417 140.000,143.417 112.999 L 143.417 87.117 145.752 84.956 C 147.035 83.768,151.027 79.998,154.622 76.578 C 166.051 65.705,165.870 65.846,167.576 66.525 C 171.744 68.183,178.757 66.122,182.164 62.238 C 191.212 51.924,181.763 35.581,168.393 38.422 M174.518 47.889 C 177.918 50.275,177.657 55.673,174.053 57.511 C 169.129 60.023,163.632 55.068,166.064 50.308 C 167.794 46.921,171.591 45.835,174.518 47.889 M206.420 47.660 C 199.310 50.231,196.276 56.264,197.175 66.046 C 197.257 66.937,197.170 67.778,196.981 67.915 C 196.793 68.052,195.630 69.257,194.398 70.594 C 193.165 71.930,189.287 76.047,185.780 79.743 C 175.321 90.761,170.820 95.628,169.935 96.876 C 169.459 97.547,169.346 100.757,169.188 118.197 L 169.001 138.729 166.900 140.119 C 162.369 143.117,159.846 147.559,159.856 152.520 C 159.887 167.755,180.526 172.567,187.292 158.917 C 190.300 152.849,188.314 145.200,182.564 140.704 L 180.766 139.298 180.766 120.620 L 180.766 101.942 183.072 99.430 C 184.340 98.049,186.987 95.232,188.954 93.171 C 196.474 85.292,203.498 77.827,204.400 76.758 L 205.339 75.644 210.139 75.637 C 218.151 75.626,222.097 72.897,225.165 65.249 C 227.055 60.535,223.868 52.279,218.995 49.267 C 215.531 47.126,209.891 46.406,206.420 47.660 M213.727 56.241 C 217.422 58.003,218.025 63.491,214.779 65.814 C 212.723 67.285,210.727 67.509,208.716 66.495 C 202.010 63.114,206.949 53.008,213.727 56.241 M238.469 70.732 C 231.196 72.173,226.592 77.696,226.592 84.982 C 226.592 99.172,244.231 104.724,252.649 93.184 C 254.504 90.641,253.934 90.756,264.702 90.756 L 274.545 90.756 275.461 91.745 C 275.965 92.288,276.377 92.892,276.377 93.087 C 276.377 93.282,277.470 95.697,278.805 98.455 C 281.601 104.229,281.694 104.839,280.007 106.320 C 269.828 115.258,278.748 133.167,292.157 130.717 C 306.423 128.111,309.035 109.695,296.039 103.355 C 293.486 102.109,293.129 101.799,292.401 100.193 C 291.957 99.214,290.838 96.816,289.914 94.865 C 286.450 87.547,284.677 83.808,284.071 82.540 C 283.728 81.821,283.098 80.812,282.672 80.299 L 281.896 79.365 268.772 79.270 C 253.653 79.162,254.288 79.238,253.192 77.405 C 251.003 73.746,244.276 69.840,240.896 70.264 C 240.794 70.277,239.701 70.488,238.469 70.732 M242.095 79.416 C 248.623 80.495,247.541 90.756,240.899 90.756 C 233.794 90.756,233.274 80.117,240.336 79.233 C 240.542 79.208,241.333 79.290,242.095 79.416 M97.106 81.666 C 94.349 82.767,91.735 84.318,90.357 85.671 C 88.867 87.133,88.232 88.142,86.604 91.635 C 84.704 95.709,87.058 103.594,91.147 106.855 C 92.021 107.553,93.215 108.573,93.801 109.122 L 94.865 110.120 94.865 132.751 C 94.865 154.679,94.889 155.472,95.659 158.270 C 96.096 159.858,96.587 161.746,96.751 162.465 C 96.915 163.184,97.323 164.781,97.658 166.013 C 97.993 167.246,98.409 168.842,98.584 169.561 C 98.917 170.936,101.367 180.347,102.958 186.368 C 103.474 188.319,104.029 190.504,104.191 191.223 C 104.353 191.942,105.033 194.547,105.703 197.012 C 106.373 199.477,107.057 202.082,107.222 202.801 C 107.387 203.520,107.796 205.117,108.131 206.349 C 108.466 207.582,108.876 209.178,109.042 209.897 C 109.209 210.616,109.888 213.221,110.551 215.686 C 111.214 218.151,111.888 220.756,112.049 221.475 C 112.210 222.194,112.691 224.097,113.118 225.703 L 113.895 228.623 111.459 234.853 C 110.119 238.280,108.872 241.419,108.686 241.830 C 108.501 242.241,107.822 243.922,107.177 245.565 C 106.532 247.208,105.867 248.889,105.699 249.300 C 105.531 249.711,104.689 251.811,103.828 253.968 C 102.967 256.125,102.120 258.226,101.945 258.637 C 101.770 259.048,101.099 260.728,100.454 262.372 C 99.809 264.015,99.144 265.696,98.976 266.106 C 98.808 266.517,97.966 268.618,97.106 270.775 C 96.245 272.932,95.393 275.033,95.214 275.444 C 95.034 275.854,94.373 277.535,93.744 279.178 C 93.116 280.822,92.451 282.502,92.267 282.913 C 92.084 283.324,91.240 285.425,90.392 287.582 C 89.545 289.739,88.712 291.839,88.541 292.250 C 88.371 292.661,87.936 293.706,87.575 294.572 C 86.691 296.694,87.211 297.445,90.798 299.224 C 92.316 299.976,103.732 305.630,116.168 311.786 C 139.435 323.305,139.683 323.450,139.683 325.498 C 139.683 326.695,141.740 330.250,143.421 331.959 C 152.398 341.078,168.067 334.822,168.067 322.119 C 168.067 310.023,153.556 302.809,144.760 310.532 C 143.127 311.966,142.251 311.760,135.178 308.278 C 114.824 298.257,105.663 293.745,103.884 292.865 C 101.662 291.766,101.307 291.273,101.875 290.078 C 102.262 289.265,104.540 283.595,106.330 278.992 C 107.241 276.649,108.006 274.768,108.684 273.203 C 108.862 272.792,110.121 269.599,111.482 266.106 C 112.843 262.614,114.109 259.421,114.296 259.010 C 114.484 258.599,115.151 256.919,115.780 255.275 C 116.408 253.632,117.070 251.951,117.249 251.541 C 117.637 250.652,120.310 243.952,121.643 240.523 C 122.162 239.188,122.832 237.507,123.130 236.788 C 123.429 236.069,123.810 235.145,123.977 234.734 C 124.144 234.323,124.584 233.259,124.956 232.368 C 125.917 230.066,125.758 227.984,124.168 222.035 C 123.400 219.160,122.635 216.218,122.470 215.500 C 122.305 214.781,121.896 213.184,121.561 211.951 C 121.226 210.719,120.816 209.122,120.650 208.403 C 120.483 207.684,119.804 205.079,119.141 202.614 C 118.478 200.149,117.799 197.544,117.632 196.825 C 117.466 196.106,117.056 194.510,116.721 193.277 C 116.386 192.045,115.974 190.448,115.806 189.729 C 115.533 188.564,114.838 185.900,111.425 172.923 C 110.912 170.971,110.354 168.786,110.187 168.067 C 110.019 167.348,109.342 164.743,108.683 162.278 C 105.959 152.088,106.039 153.102,106.153 130.287 L 106.256 109.739 107.250 108.931 C 107.796 108.487,108.949 107.553,109.810 106.855 C 113.796 103.629,116.236 95.688,114.424 91.840 C 114.192 91.346,113.699 90.218,113.330 89.333 C 111.196 84.221,101.813 79.787,97.106 81.666 M102.857 90.903 C 105.531 92.020,107.024 96.117,105.676 98.636 C 104.280 101.244,100.134 102.366,97.623 100.814 C 91.540 97.054,96.247 88.141,102.857 90.903 M206.339 97.424 C 203.164 98.723,199.848 101.547,198.602 104.015 C 197.101 106.989,197.012 107.385,197.017 111.074 C 197.022 116.019,198.194 118.774,201.489 121.589 C 205.854 125.318,205.415 124.193,205.415 131.660 C 205.415 139.047,205.389 139.142,202.877 140.754 C 195.552 145.455,194.695 156.654,201.183 162.894 C 208.973 170.387,221.876 167.004,225.019 156.644 C 226.927 150.352,224.790 145.010,218.207 139.623 L 216.993 138.629 216.993 131.698 L 216.993 124.767 219.026 123.233 C 228.862 115.807,227.437 102.196,216.345 97.635 C 213.689 96.543,208.750 96.439,206.339 97.424 M213.727 105.914 C 215.290 106.659,216.628 108.584,216.878 110.448 C 217.473 114.885,212.274 118.430,208.547 116.127 C 202.248 112.233,207.064 102.737,213.727 105.914 M293.301 111.819 C 297.388 114.832,296.377 120.346,291.427 122.042 C 288.347 123.096,284.220 119.940,284.220 116.530 C 284.220 112.056,289.739 109.193,293.301 111.819 M139.433 147.337 C 142.174 148.482,143.336 150.625,142.877 153.685 C 142.287 157.620,137.767 159.393,134.159 157.104 C 128.582 153.567,133.324 144.784,139.433 147.337 M176.899 147.552 C 180.481 149.286,181.216 153.602,178.391 156.309 C 175.783 158.808,172.776 158.831,170.169 156.372 C 165.581 152.045,171.137 144.763,176.899 147.552 M214.035 147.628 C 217.713 150.107,217.962 154.485,214.571 157.071 C 212.007 159.026,207.793 158.191,206.311 155.434 C 203.530 150.259,209.294 144.433,214.035 147.628 M249.898 147.188 C 254.362 148.625,255.069 154.852,251.043 157.277 C 245.191 160.802,239.261 152.989,244.316 148.414 C 245.926 146.956,247.859 146.531,249.898 147.188 M150.287 172.149 C 137.142 175.836,135.322 193.318,147.460 199.303 C 149.388 200.254,149.952 200.349,153.688 200.357 C 159.549 200.369,161.284 199.399,166.624 193.126 L 167.608 191.970 173.658 191.970 L 179.709 191.970 180.891 193.285 C 185.478 198.391,187.128 199.539,191.087 200.378 C 197.065 201.644,203.669 198.542,206.476 193.149 C 214.784 177.185,192.798 163.296,182.142 177.778 C 180.115 180.533,180.610 180.380,173.720 180.386 L 167.608 180.392 166.624 179.236 C 162.467 174.353,160.687 173.102,156.317 171.993 C 153.646 171.316,153.220 171.327,150.287 172.149 M233.399 171.993 C 215.739 174.950,217.440 200.420,235.294 200.359 C 240.436 200.341,243.314 199.069,246.204 195.536 C 249.433 191.588,247.181 191.970,267.194 191.970 C 280.403 191.970,284.930 192.082,285.266 192.418 C 285.741 192.893,285.932 211.850,285.479 213.539 L 285.254 214.379 237.201 214.379 C 194.314 214.379,189.059 214.442,188.318 214.960 L 187.488 215.542 187.488 257.305 C 187.488 295.690,187.538 299.110,188.106 299.581 C 188.608 299.998,192.423 300.112,208.650 300.196 L 228.577 300.299 230.436 302.856 C 239.077 314.736,256.632 309.776,256.739 295.425 C 256.843 281.466,241.699 275.541,231.691 285.625 L 228.999 288.337 214.126 288.240 L 199.253 288.142 199.253 257.330 L 199.253 226.517 247.512 226.331 C 293.202 226.154,295.807 226.108,296.439 225.477 C 297.470 224.445,297.470 181.904,296.439 180.872 C 295.815 180.249,294.254 180.199,272.272 180.101 L 248.772 179.997 247.063 177.822 C 243.327 173.067,238.720 171.102,233.399 171.993 M155.406 180.816 C 158.322 181.791,159.867 184.631,159.086 187.581 C 157.952 191.862,152.792 193.336,149.644 190.278 C 145.318 186.077,149.686 178.905,155.406 180.816 M195.850 180.911 C 200.820 182.988,200.438 190.222,195.285 191.609 C 189.589 193.143,185.630 186.481,189.667 182.156 C 191.209 180.504,193.684 180.006,195.850 180.911 M238.493 181.537 C 242.082 183.245,242.216 188.764,238.722 190.924 C 233.801 193.965,227.826 188.874,230.399 183.832 C 232.123 180.455,234.691 179.727,238.493 181.537 M149.300 207.503 C 140.070 210.845,136.267 222.041,141.815 229.540 C 142.286 230.176,142.670 231.182,142.670 231.775 C 142.670 232.635,137.478 245.717,134.084 253.408 C 133.722 254.230,132.883 256.246,132.220 257.890 C 130.863 261.256,130.079 263.143,129.584 264.239 C 124.816 274.785,124.531 273.879,134.147 278.746 L 138.749 281.076 139.351 284.049 C 142.591 300.048,164.286 300.890,167.805 285.154 C 168.390 282.539,168.373 281.927,167.615 278.431 C 165.760 269.868,155.585 265.358,147.267 269.412 L 144.317 270.850 142.560 270.025 C 140.723 269.161,140.285 268.042,141.135 266.381 C 141.464 265.739,142.065 264.394,143.203 261.755 C 143.526 261.005,143.791 260.296,143.791 260.179 C 143.791 260.062,144.221 258.995,144.746 257.808 C 146.079 254.795,146.192 254.525,147.539 251.167 C 148.199 249.524,149.034 247.507,149.396 246.685 C 149.759 245.864,150.778 243.427,151.661 241.270 C 153.438 236.932,154.329 235.668,155.608 235.668 C 160.816 235.668,166.532 230.109,167.881 223.733 C 170.017 213.631,158.987 203.996,149.300 207.503 M155.881 216.064 C 157.451 216.720,159.036 218.901,159.350 220.839 C 160.037 225.071,154.898 228.503,151.010 226.408 C 144.704 223.010,149.274 213.303,155.881 216.064 M245.222 249.339 C 247.923 250.621,248.976 254.717,247.301 257.426 C 245.345 260.592,240.737 261.002,238.300 258.227 C 234.089 253.431,239.420 246.586,245.222 249.339 M68.375 271.719 C 74.647 273.931,73.322 282.726,66.717 282.726 C 60.105 282.726,58.888 274.069,65.159 271.644 C 66.650 271.067,66.521 271.064,68.375 271.719 M155.650 276.695 C 158.236 277.441,159.910 280.780,159.118 283.610 C 157.545 289.228,149.504 289.139,148.235 283.489 C 147.226 278.999,151.156 275.397,155.650 276.695 M245.608 290.340 C 250.425 293.257,248.114 300.654,242.385 300.654 C 235.957 300.654,234.597 290.973,240.832 289.603 C 241.381 289.482,241.995 289.344,242.196 289.294 C 242.845 289.136,244.413 289.617,245.608 290.340 M155.965 316.677 C 157.735 317.482,158.982 319.262,159.269 321.399 C 159.939 326.369,154.192 329.451,150.089 326.322 C 144.889 322.355,149.999 313.968,155.965 316.677 M190.638 334.630 C 193.075 335.812,194.138 338.345,193.411 341.234 C 192.339 345.490,186.719 346.738,183.767 343.375 C 179.528 338.547,184.823 331.809,190.638 334.630 " stroke="none" fill="#fa1313" fill-rule="evenodd"></path><path id="path1" d="M0.000 186.741 L 0.000 373.483 200.000 373.483 L 400.000 373.483 400.000 186.741 L 400.000 0.000 200.000 0.000 L 0.000 0.000 0.000 186.741 M156.447 11.947 C 160.186 12.375,166.956 13.011,172.549 13.458 C 174.706 13.631,179.244 14.040,182.633 14.368 C 186.022 14.696,190.560 15.112,192.717 15.294 C 201.445 16.029,206.123 16.463,208.964 16.799 C 211.943 17.153,220.593 17.988,228.385 18.676 C 237.568 19.486,245.396 20.194,248.926 20.533 C 250.980 20.730,254.090 20.989,255.836 21.107 C 259.621 21.364,262.402 21.937,263.679 22.724 C 264.640 23.317,273.429 29.863,273.763 30.235 C 273.866 30.349,274.954 31.190,276.181 32.103 C 277.408 33.016,278.668 33.973,278.982 34.229 C 279.295 34.485,285.182 38.981,292.063 44.220 C 298.945 49.459,304.743 53.887,304.949 54.060 C 305.154 54.233,306.331 55.112,307.563 56.013 C 308.796 56.914,309.888 57.763,309.991 57.900 C 310.093 58.038,311.631 59.226,313.409 60.541 C 321.175 66.288,330.049 73.126,331.407 74.410 L 332.881 75.804 332.636 78.705 C 332.330 82.341,331.851 86.895,331.094 93.371 C 330.770 96.144,330.352 99.925,330.165 101.774 C 329.979 103.623,329.559 107.488,329.231 110.364 C 328.903 113.240,328.488 117.021,328.309 118.768 C 328.129 120.514,327.811 123.371,327.602 125.117 C 327.392 126.863,327.030 130.056,326.797 132.213 C 326.564 134.370,326.215 137.490,326.021 139.146 C 325.681 142.046,325.795 142.994,326.783 145.472 C 327.573 147.451,328.322 149.448,329.233 152.007 C 329.782 153.548,330.450 155.313,330.718 155.929 C 330.986 156.545,331.473 157.851,331.800 158.830 C 332.446 160.762,335.559 169.167,336.190 170.682 C 336.404 171.195,336.832 172.372,337.141 173.296 C 337.450 174.220,337.922 175.481,338.190 176.097 C 338.457 176.713,339.126 178.478,339.674 180.019 C 340.223 181.559,340.932 183.492,341.249 184.314 C 341.566 185.135,341.954 186.144,342.110 186.555 C 342.266 186.965,342.654 187.974,342.971 188.796 C 343.289 189.617,343.997 191.550,344.546 193.091 C 345.095 194.631,345.754 196.396,346.012 197.012 C 346.269 197.628,346.660 198.637,346.880 199.253 C 347.100 199.869,348.410 203.381,349.792 207.057 C 352.777 214.995,352.808 214.775,348.204 218.114 C 346.645 219.244,345.183 220.348,344.954 220.568 C 344.725 220.789,343.434 221.797,342.085 222.809 C 340.737 223.822,338.300 225.650,336.670 226.872 C 327.467 233.774,321.216 238.757,321.053 239.321 C 320.951 239.674,320.771 241.307,320.652 242.951 C 320.442 245.860,320.319 247.389,319.139 261.811 C 318.828 265.612,318.405 270.822,318.199 273.389 C 317.993 275.957,317.646 280.159,317.428 282.726 C 317.210 285.294,316.881 289.496,316.697 292.063 C 316.513 294.631,316.100 299.841,315.780 303.641 C 315.459 307.442,315.046 312.652,314.862 315.219 C 313.844 329.429,313.623 330.679,312.025 331.287 C 311.422 331.516,297.793 331.657,275.513 331.665 C 246.175 331.674,239.846 331.765,239.295 332.183 C 238.927 332.462,237.905 334.095,237.023 335.813 C 235.562 338.657,232.330 344.884,226.430 356.220 C 222.922 362.960,223.381 362.792,216.924 359.711 C 214.394 358.504,211.485 357.140,210.458 356.680 C 209.430 356.220,206.825 355.002,204.669 353.973 C 202.512 352.944,200.030 351.791,199.154 351.412 L 197.560 350.722 195.792 351.695 C 194.820 352.230,193.856 352.794,193.651 352.947 C 193.445 353.101,192.047 353.504,190.542 353.842 C 178.811 356.478,169.263 343.000,175.403 332.470 C 182.073 321.032,199.955 324.045,202.039 336.957 C 202.621 340.564,201.894 340.001,212.278 344.881 C 218.574 347.840,217.597 348.346,221.951 339.869 C 229.265 325.630,230.826 322.642,231.439 321.706 C 232.790 319.644,231.746 319.701,268.290 319.701 C 306.530 319.701,302.862 320.063,303.125 316.260 C 303.327 313.350,304.258 301.988,304.786 295.985 C 305.003 293.520,305.213 289.570,305.252 287.208 L 305.322 282.913 298.599 282.486 C 290.086 281.946,289.337 281.838,279.552 279.736 C 277.874 279.375,268.207 276.214,266.480 275.461 C 265.864 275.192,264.687 274.677,263.866 274.317 C 261.781 273.404,254.981 270.019,254.528 269.670 C 251.688 267.475,249.851 267.123,246.721 268.170 C 236.872 271.464,226.370 262.298,228.203 252.007 C 231.162 235.389,255.531 236.364,256.756 253.150 C 257.111 258.009,257.031 257.851,259.848 259.295 C 261.236 260.006,263.884 261.377,265.733 262.340 C 271.679 265.440,279.088 267.843,288.329 269.669 C 293.405 270.672,305.957 271.408,306.483 270.733 C 306.851 270.262,307.320 265.519,308.125 254.155 C 308.755 245.261,309.282 239.080,309.659 236.181 C 310.166 232.288,309.896 232.567,321.523 223.922 C 326.310 220.363,337.948 211.346,338.295 210.928 C 338.745 210.386,338.054 208.158,335.371 201.494 C 335.205 201.083,334.373 198.814,333.520 196.452 C 332.668 194.090,331.835 191.821,331.669 191.410 C 331.291 190.471,330.248 187.763,329.512 185.808 C 329.202 184.986,328.814 183.978,328.648 183.567 C 328.483 183.156,327.647 180.887,326.791 178.525 C 325.935 176.162,325.017 173.725,324.752 173.109 C 324.486 172.493,323.894 170.896,323.436 169.561 C 322.978 168.226,322.387 166.629,322.123 166.013 C 321.110 163.649,316.713 151.770,316.713 151.396 C 316.713 149.599,314.458 149.504,304.762 150.893 C 303.427 151.084,300.149 151.503,297.479 151.824 C 292.679 152.401,291.115 152.596,282.726 153.664 C 280.364 153.965,277.507 154.312,276.377 154.436 C 274.091 154.686,267.023 155.594,264.426 155.972 C 262.310 156.280,262.035 156.506,260.917 158.862 C 255.209 170.888,237.778 169.070,234.034 156.058 C 230.772 144.721,243.705 133.944,254.020 139.403 C 255.950 140.425,258.442 142.358,259.198 143.418 C 260.099 144.684,261.217 144.823,265.316 144.179 C 266.573 143.981,269.785 143.553,272.456 143.227 C 275.126 142.900,278.571 142.472,280.112 142.275 C 286.769 141.422,289.430 141.092,292.063 140.794 C 293.604 140.620,296.881 140.212,299.346 139.886 C 301.811 139.561,305.356 139.137,307.224 138.944 C 314.240 138.218,314.527 138.053,314.895 134.543 C 315.039 133.159,315.424 129.673,315.750 126.797 C 316.075 123.922,316.431 120.728,316.541 119.701 C 316.733 117.902,317.473 111.193,318.211 104.575 C 318.405 102.829,318.824 99.048,319.142 96.172 C 319.459 93.296,319.886 89.599,320.091 87.955 C 320.296 86.312,320.495 84.020,320.534 82.862 C 320.620 80.303,322.534 82.056,305.322 68.930 C 303.884 67.834,300.523 65.269,297.852 63.231 C 286.674 54.699,282.725 51.697,279.365 49.181 C 277.414 47.720,275.733 46.434,275.630 46.325 C 275.528 46.215,272.759 44.108,269.478 41.643 C 266.197 39.178,262.540 36.390,261.353 35.446 C 258.713 33.349,257.425 32.943,252.025 32.504 C 243.818 31.836,238.827 31.370,237.535 31.149 C 236.816 31.027,234.379 30.780,232.120 30.602 C 229.860 30.423,225.490 30.028,222.409 29.724 C 219.328 29.420,215.630 29.074,214.192 28.954 C 209.509 28.564,198.963 27.622,195.331 27.268 C 193.380 27.078,188.758 26.657,185.061 26.334 C 181.363 26.010,176.573 25.579,174.416 25.376 C 164.110 24.404,161.976 24.215,157.903 23.914 C 155.497 23.736,153.358 23.485,153.150 23.356 C 152.691 23.073,149.702 25.006,143.129 29.837 C 141.840 30.784,139.260 32.652,137.394 33.987 C 135.528 35.322,132.213 37.722,130.026 39.319 C 127.840 40.916,125.714 42.460,125.303 42.749 C 124.193 43.531,119.385 47.005,118.954 47.338 C 118.248 47.882,113.351 51.397,112.549 51.935 C 110.544 53.281,75.455 78.696,74.043 79.826 L 72.456 81.096 72.456 118.600 L 72.456 156.105 73.572 159.565 C 77.351 171.273,78.683 175.386,80.861 182.073 C 82.200 186.181,84.135 192.148,85.162 195.331 C 88.512 205.713,91.859 215.998,92.880 219.048 C 93.957 222.263,94.210 225.648,93.483 227.126 C 92.935 228.241,92.238 229.918,90.942 233.240 C 90.381 234.678,89.783 236.190,89.612 236.601 C 89.441 237.012,88.774 238.693,88.129 240.336 C 87.485 241.979,86.812 243.660,86.635 244.071 C 86.457 244.482,85.619 246.583,84.771 248.739 C 83.923 250.896,83.083 252.997,82.904 253.408 C 82.726 253.819,82.052 255.500,81.407 257.143 C 80.762 258.786,80.088 260.467,79.908 260.878 C 77.361 266.714,77.310 267.180,78.928 269.741 C 86.742 282.103,72.600 296.963,59.702 289.943 C 51.800 285.643,50.041 274.352,56.205 267.497 C 57.887 265.627,61.903 263.305,63.457 263.305 C 65.813 263.305,66.661 262.450,68.323 258.401 C 69.198 256.271,70.053 254.192,70.225 253.782 C 71.251 251.330,71.784 250.023,73.196 246.499 C 74.061 244.342,74.915 242.241,75.094 241.830 C 75.274 241.419,75.935 239.739,76.564 238.095 C 77.193 236.452,77.854 234.771,78.033 234.360 C 78.213 233.950,79.064 231.849,79.925 229.692 C 80.786 227.535,81.672 225.391,81.893 224.927 C 82.322 224.028,82.449 224.497,78.378 211.951 C 75.949 204.467,75.062 201.681,73.207 195.705 C 72.345 192.932,71.501 190.327,71.329 189.916 C 71.158 189.505,70.333 186.984,69.497 184.314 C 66.557 174.921,64.866 169.694,62.975 164.146 L 61.064 158.543 61.064 117.024 L 61.064 75.504 61.998 74.496 C 62.512 73.941,63.466 73.129,64.120 72.691 C 64.773 72.254,71.892 67.106,79.940 61.251 C 87.987 55.397,95.100 50.231,95.745 49.772 C 96.391 49.313,97.786 48.305,98.846 47.531 C 107.834 40.973,136.921 19.863,137.577 19.421 C 138.035 19.113,139.410 18.087,140.633 17.142 C 148.260 11.246,148.796 11.070,156.447 11.947 M177.220 39.385 C 189.278 44.704,188.188 62.465,175.556 66.492 C 173.619 67.110,169.093 67.128,167.576 66.525 C 165.870 65.846,166.051 65.705,154.622 76.578 C 151.027 79.998,147.035 83.768,145.752 84.956 L 143.417 87.117 143.417 112.999 C 143.417 140.000,143.420 140.056,144.889 140.056 C 145.053 140.056,146.095 140.957,147.204 142.057 C 156.820 151.597,150.672 166.846,137.255 166.735 C 125.711 166.640,119.122 154.593,125.216 144.725 C 125.712 143.920,128.397 141.230,130.296 139.632 L 131.466 138.648 131.468 111.808 C 131.470 81.054,131.265 83.061,134.767 79.576 C 136.882 77.472,151.829 63.072,155.552 59.553 C 157.278 57.921,157.686 57.019,157.236 55.836 C 156.580 54.109,156.804 50.615,157.737 48.044 C 160.693 39.902,169.508 35.984,177.220 39.385 M169.886 46.950 C 167.873 47.257,165.453 50.358,165.453 52.630 C 165.453 58.289,173.713 60.315,176.279 55.285 C 178.518 50.897,174.903 46.184,169.886 46.950 M215.778 47.771 C 222.899 50.374,227.611 59.148,225.165 65.249 C 222.097 72.897,218.151 75.626,210.139 75.637 L 205.339 75.644 204.400 76.758 C 203.498 77.827,196.474 85.292,188.954 93.171 C 186.987 95.232,184.340 98.049,183.072 99.430 L 180.766 101.942 180.766 120.620 L 180.766 139.298 182.564 140.704 C 194.020 149.662,188.554 166.798,174.259 166.744 C 159.390 166.688,154.343 148.427,166.900 140.119 L 169.001 138.729 169.188 118.197 C 169.346 100.757,169.459 97.547,169.935 96.876 C 170.820 95.628,175.321 90.761,185.780 79.743 C 189.287 76.047,193.165 71.930,194.398 70.594 C 195.630 69.257,196.793 68.052,196.981 67.915 C 197.170 67.778,197.257 66.937,197.175 66.046 C 196.376 57.348,197.974 53.059,203.432 49.263 C 206.706 46.986,211.909 46.357,215.778 47.771 M208.590 56.348 C 204.336 58.990,204.402 64.320,208.716 66.495 C 212.827 68.568,217.742 64.901,216.848 60.428 C 216.082 56.600,211.684 54.426,208.590 56.348 M243.348 70.727 C 247.532 71.626,251.239 74.140,253.192 77.405 C 254.288 79.238,253.653 79.162,268.772 79.270 L 281.896 79.365 282.672 80.299 C 283.098 80.812,283.728 81.821,284.071 82.540 C 284.677 83.808,286.450 87.547,289.914 94.865 C 290.838 96.816,291.957 99.214,292.401 100.193 C 293.129 101.799,293.486 102.109,296.039 103.355 C 309.035 109.695,306.423 128.111,292.157 130.717 C 278.748 133.167,269.828 115.258,280.007 106.320 C 281.694 104.839,281.601 104.229,278.805 98.455 C 277.470 95.697,276.377 93.282,276.377 93.087 C 276.377 92.892,275.965 92.288,275.461 91.745 L 274.545 90.756 264.702 90.756 C 253.934 90.756,254.504 90.641,252.649 93.184 C 244.231 104.724,226.592 99.172,226.592 84.982 C 226.592 76.903,231.952 71.389,240.896 70.264 C 240.999 70.252,242.102 70.460,243.348 70.727 M239.093 79.446 C 233.084 80.591,234.708 90.756,240.899 90.756 C 247.541 90.756,248.623 80.495,242.095 79.416 C 240.645 79.176,240.502 79.177,239.093 79.446 M106.451 82.807 C 109.357 84.219,112.400 87.106,113.330 89.333 C 113.699 90.218,114.192 91.346,114.424 91.840 C 116.236 95.688,113.796 103.629,109.810 106.855 C 108.949 107.553,107.796 108.487,107.250 108.931 L 106.256 109.739 106.153 130.287 C 106.039 153.102,105.959 152.088,108.683 162.278 C 109.342 164.743,110.019 167.348,110.187 168.067 C 110.354 168.786,110.912 170.971,111.425 172.923 C 114.838 185.900,115.533 188.564,115.806 189.729 C 115.974 190.448,116.386 192.045,116.721 193.277 C 117.056 194.510,117.466 196.106,117.632 196.825 C 117.799 197.544,118.478 200.149,119.141 202.614 C 119.804 205.079,120.483 207.684,120.650 208.403 C 120.816 209.122,121.226 210.719,121.561 211.951 C 121.896 213.184,122.305 214.781,122.470 215.500 C 122.635 216.218,123.400 219.160,124.168 222.035 C 125.758 227.984,125.917 230.066,124.956 232.368 C 124.584 233.259,124.144 234.323,123.977 234.734 C 123.810 235.145,123.429 236.069,123.130 236.788 C 122.832 237.507,122.162 239.188,121.643 240.523 C 120.310 243.952,117.637 250.652,117.249 251.541 C 117.070 251.951,116.408 253.632,115.780 255.275 C 115.151 256.919,114.484 258.599,114.296 259.010 C 114.109 259.421,112.843 262.614,111.482 266.106 C 110.121 269.599,108.862 272.792,108.684 273.203 C 108.006 274.768,107.241 276.649,106.330 278.992 C 104.540 283.595,102.262 289.265,101.875 290.078 C 101.307 291.273,101.662 291.766,103.884 292.865 C 105.663 293.745,114.824 298.257,135.178 308.278 C 142.251 311.760,143.127 311.966,144.760 310.532 C 153.556 302.809,168.067 310.023,168.067 322.119 C 168.067 334.822,152.398 341.078,143.421 331.959 C 141.740 330.250,139.683 326.695,139.683 325.498 C 139.683 323.450,139.435 323.305,116.168 311.786 C 103.732 305.630,92.316 299.976,90.798 299.224 C 87.211 297.445,86.691 296.694,87.575 294.572 C 87.936 293.706,88.371 292.661,88.541 292.250 C 88.712 291.839,89.545 289.739,90.392 287.582 C 91.240 285.425,92.084 283.324,92.267 282.913 C 92.451 282.502,93.116 280.822,93.744 279.178 C 94.373 277.535,95.034 275.854,95.214 275.444 C 95.393 275.033,96.245 272.932,97.106 270.775 C 97.966 268.618,98.808 266.517,98.976 266.106 C 99.144 265.696,99.809 264.015,100.454 262.372 C 101.099 260.728,101.770 259.048,101.945 258.637 C 102.120 258.226,102.967 256.125,103.828 253.968 C 104.689 251.811,105.531 249.711,105.699 249.300 C 105.867 248.889,106.532 247.208,107.177 245.565 C 107.822 243.922,108.501 242.241,108.686 241.830 C 108.872 241.419,110.119 238.280,111.459 234.853 L 113.895 228.623 113.118 225.703 C 112.691 224.097,112.210 222.194,112.049 221.475 C 111.888 220.756,111.214 218.151,110.551 215.686 C 109.888 213.221,109.209 210.616,109.042 209.897 C 108.876 209.178,108.466 207.582,108.131 206.349 C 107.796 205.117,107.387 203.520,107.222 202.801 C 107.057 202.082,106.373 199.477,105.703 197.012 C 105.033 194.547,104.353 191.942,104.191 191.223 C 104.029 190.504,103.474 188.319,102.958 186.368 C 101.367 180.347,98.917 170.936,98.584 169.561 C 98.409 168.842,97.993 167.246,97.658 166.013 C 97.323 164.781,96.915 163.184,96.751 162.465 C 96.587 161.746,96.096 159.858,95.659 158.270 C 94.889 155.472,94.865 154.679,94.865 132.751 L 94.865 110.120 93.801 109.122 C 93.215 108.573,92.021 107.553,91.147 106.855 C 87.058 103.594,84.704 95.709,86.604 91.635 C 88.232 88.142,88.867 87.133,90.357 85.671 C 91.735 84.318,94.349 82.767,97.106 81.666 C 98.792 80.993,104.035 81.633,106.451 82.807 M98.466 90.767 C 96.225 91.438,94.865 93.487,94.865 96.189 C 94.865 100.655,100.052 103.159,103.753 100.479 C 109.151 96.568,104.938 88.827,98.466 90.767 M216.345 97.635 C 227.437 102.196,228.862 115.807,219.026 123.233 L 216.993 124.767 216.993 131.698 L 216.993 138.629 218.207 139.623 C 223.607 144.042,225.588 147.477,225.580 152.407 C 225.558 165.233,210.392 171.752,201.183 162.894 C 194.695 156.654,195.552 145.455,202.877 140.754 C 205.389 139.142,205.415 139.047,205.415 131.660 C 205.415 124.193,205.854 125.318,201.489 121.589 C 198.194 118.774,197.022 116.019,197.017 111.074 C 197.012 107.385,197.101 106.989,198.602 104.015 C 201.589 98.099,210.063 95.052,216.345 97.635 M208.590 106.021 C 204.489 108.568,204.468 113.605,208.547 116.127 C 212.274 118.430,217.473 114.885,216.878 110.448 C 216.340 106.437,211.813 104.019,208.590 106.021 M289.076 110.931 C 285.442 111.550,283.157 115.648,284.747 118.693 C 287.026 123.054,292.535 123.400,295.045 119.338 C 297.537 115.306,293.852 110.116,289.076 110.931 M135.201 147.305 C 132.492 148.278,130.984 152.124,132.155 155.075 C 133.165 157.620,137.811 158.962,140.243 157.410 C 146.189 153.616,141.849 144.917,135.201 147.305 M171.903 147.512 C 168.257 149.167,167.364 153.726,170.169 156.372 C 172.776 158.831,175.783 158.808,178.391 156.309 C 182.964 151.928,177.750 144.858,171.903 147.512 M208.403 147.562 C 205.656 149.173,204.759 152.546,206.311 155.434 C 208.387 159.296,214.756 158.881,216.473 154.771 C 218.553 149.793,213.024 144.854,208.403 147.562 M246.312 147.229 C 244.013 148.032,242.390 150.242,242.390 152.568 C 242.390 156.889,247.274 159.547,251.043 157.277 C 256.710 153.863,252.559 145.046,246.312 147.229 M156.317 171.993 C 160.687 173.102,162.467 174.353,166.624 179.236 L 167.608 180.392 173.720 180.386 C 180.610 180.380,180.115 180.533,182.142 177.778 C 192.798 163.296,214.784 177.185,206.476 193.149 C 203.669 198.542,197.065 201.644,191.087 200.378 C 187.128 199.539,185.478 198.391,180.891 193.285 L 179.709 191.970 173.658 191.970 L 167.608 191.970 166.624 193.126 C 161.284 199.399,159.549 200.369,153.688 200.357 C 136.595 200.323,133.757 176.785,150.287 172.149 C 153.220 171.327,153.646 171.316,156.317 171.993 M240.816 172.756 C 242.911 173.632,245.280 175.553,247.063 177.822 L 248.772 179.997 272.272 180.101 C 294.254 180.199,295.815 180.249,296.439 180.872 C 297.470 181.904,297.470 224.445,296.439 225.477 C 295.807 226.108,293.202 226.154,247.512 226.331 L 199.253 226.517 199.253 257.330 L 199.253 288.142 214.126 288.240 L 228.999 288.337 231.691 285.625 C 241.699 275.541,256.843 281.466,256.739 295.425 C 256.632 309.776,239.077 314.736,230.436 302.856 L 228.577 300.299 208.650 300.196 C 192.423 300.112,188.608 299.998,188.106 299.581 C 187.538 299.110,187.488 295.690,187.488 257.305 L 187.488 215.542 188.318 214.960 C 189.059 214.442,194.314 214.379,237.201 214.379 L 285.254 214.379 285.479 213.539 C 285.932 211.850,285.741 192.893,285.266 192.418 C 284.930 192.082,280.403 191.970,267.194 191.970 C 247.181 191.970,249.433 191.588,246.204 195.536 C 239.241 204.049,225.361 201.369,221.681 190.801 C 217.736 179.473,229.759 168.136,240.816 172.756 M151.406 180.927 C 147.666 182.555,146.742 187.459,149.644 190.278 C 152.792 193.336,157.952 191.862,159.086 187.581 C 160.289 183.037,155.697 179.059,151.406 180.927 M191.769 180.789 C 187.861 181.926,186.763 187.658,189.922 190.432 C 193.093 193.216,198.578 191.486,199.253 187.488 C 200.044 182.804,196.316 179.467,191.769 180.789 M233.434 180.797 C 227.619 183.193,229.146 191.638,235.410 191.729 C 239.927 191.794,242.583 187.654,240.640 183.579 C 239.648 181.497,235.562 179.920,233.434 180.797 M158.325 207.645 C 169.743 211.818,171.578 226.515,161.543 233.419 C 159.894 234.553,156.953 235.668,155.608 235.668 C 154.329 235.668,153.438 236.932,151.661 241.270 C 150.778 243.427,149.759 245.864,149.396 246.685 C 149.034 247.507,148.199 249.524,147.539 251.167 C 146.192 254.525,146.079 254.795,144.746 257.808 C 144.221 258.995,143.791 260.062,143.791 260.179 C 143.791 260.296,143.526 261.005,143.203 261.755 C 142.065 264.394,141.464 265.739,141.135 266.381 C 140.285 268.042,140.723 269.161,142.560 270.025 L 144.317 270.850 147.267 269.412 C 155.585 265.358,165.760 269.868,167.615 278.431 C 168.373 281.927,168.390 282.539,167.805 285.154 C 164.286 300.890,142.591 300.048,139.351 284.049 L 138.749 281.076 134.147 278.746 C 124.531 273.879,124.816 274.785,129.584 264.239 C 130.079 263.143,130.863 261.256,132.220 257.890 C 132.883 256.246,133.722 254.230,134.084 253.408 C 137.478 245.717,142.670 232.635,142.670 231.775 C 142.670 231.182,142.286 230.176,141.815 229.540 C 139.069 225.829,138.557 219.129,140.699 214.933 C 143.989 208.487,151.797 205.259,158.325 207.645 M151.447 216.087 C 148.804 217.462,147.617 219.754,148.124 222.508 C 149.095 227.785,156.390 228.736,158.736 223.891 C 161.022 219.168,155.955 213.742,151.447 216.087 M239.854 249.362 C 235.261 251.626,236.064 258.641,241.060 259.899 C 244.771 260.834,248.079 258.215,248.079 254.342 C 248.079 250.003,243.804 247.415,239.854 249.362 M65.159 271.644 C 58.888 274.069,60.105 282.726,66.717 282.726 C 73.322 282.726,74.647 273.931,68.375 271.719 C 66.521 271.064,66.650 271.067,65.159 271.644 M151.782 276.781 C 146.645 278.271,146.944 286.112,152.194 287.582 C 157.812 289.154,161.845 282.001,157.603 277.989 C 155.974 276.448,154.198 276.080,151.782 276.781 M242.196 289.294 C 241.995 289.344,241.381 289.482,240.832 289.603 C 236.248 290.610,235.368 297.397,239.483 300.010 C 241.729 301.436,246.398 300.320,247.603 298.069 C 249.540 294.450,245.819 288.410,242.196 289.294 M151.682 316.542 C 147.548 318.337,146.672 323.715,150.089 326.322 C 152.242 327.964,154.821 328.026,157.049 326.489 C 162.345 322.837,157.570 313.986,151.682 316.542 M186.087 334.157 C 183.687 334.619,181.878 337.905,182.423 340.811 C 183.484 346.468,192.010 346.796,193.411 341.234 C 194.582 336.580,191.080 333.196,186.087 334.157 " stroke="none" fill="#040404" fill-rule="evenodd"></path></g></svg></svg></g></svg>